# MagicaVoxel @ Ephtracy

# material
mtllib raven.mtl
usemtl palette

# normals
vn -1 0 0
vn 1 0 0
vn 0 0 1
vn 0 0 -1
vn 0 -1 0
vn 0 1 0

# texcoords
vt 0.943359 0.5
vt 0.947266 0.5
vt 0.951172 0.5

# verts
v -3 1 -0
v -3 1 -3
v -3 2 1
v -3 2 -0
v -3 3 2
v -3 3 1
v -3 4 -2
v -3 4 -3
v -3 6 2
v -3 6 -2
v -2 0 1
v -2 0 -0
v -2 1 -0
v -2 2 2
v -2 2 1
v -2 2 -0
v -2 3 3
v -2 3 2
v -2 3 1
v -2 6 2
v -2 6 -2
v -2 7 -1
v -2 7 -2
v -2 9 3
v -2 9 1
v -2 9 -0
v -2 9 -1
v -2 10 3
v -2 10 1
v -2 11 3
v -2 11 2
v -2 11 1
v -2 11 -0
v -2 12 2
v -2 12 1
v -1 1 2
v -1 1 1
v -1 2 3
v -1 2 2
v -1 2 1
v -1 3 3
v -1 3 2
v -1 9 5
v -1 9 3
v -1 10 5
v -1 10 3
v -1 11 3
v -1 11 2
v -1 11 1
v -1 11 -0
v -1 12 3
v -1 12 2
v -1 12 1
v -1 12 -0
v 1 0 1
v 1 0 -0
v 1 1 1
v 1 1 -0
v 1 1 -2
v 1 1 -3
v 1 2 -2
v 1 2 -3
v 2 2 -2
v 2 2 -3
v 2 4 -2
v 2 4 -3
v -2 2 -2
v -2 2 -3
v -2 4 -2
v -2 4 -3
v -1 0 1
v -1 0 -0
v -1 1 1
v -1 1 -0
v -1 1 -2
v -1 1 -3
v -1 2 -2
v -1 2 -3
v 1 1 2
v 1 1 1
v 1 2 3
v 1 2 2
v 1 2 1
v 1 3 3
v 1 3 2
v 1 9 5
v 1 9 3
v 1 10 5
v 1 10 3
v 1 11 3
v 1 11 2
v 1 11 1
v 1 11 -0
v 1 12 3
v 1 12 2
v 1 12 1
v 1 12 -0
v 2 0 1
v 2 0 -0
v 2 1 -0
v 2 2 2
v 2 2 1
v 2 2 -0
v 2 3 3
v 2 3 2
v 2 3 1
v 2 6 2
v 2 6 -2
v 2 7 -1
v 2 7 -2
v 2 9 3
v 2 9 1
v 2 9 -0
v 2 9 -1
v 2 10 3
v 2 10 1
v 2 11 3
v 2 11 2
v 2 11 1
v 2 11 -0
v 2 12 2
v 2 12 1
v 3 1 -0
v 3 1 -3
v 3 2 1
v 3 2 -0
v 3 3 2
v 3 3 1
v 3 4 -2
v 3 4 -3
v 3 6 2
v 3 6 -2
v -1 9 5
v -1 10 5
v 1 9 5
v 1 10 5
v -2 3 3
v -2 9 3
v -2 10 3
v -2 11 3
v -1 2 3
v -1 3 3
v -1 9 3
v -1 10 3
v -1 11 3
v -1 12 3
v 1 2 3
v 1 3 3
v 1 9 3
v 1 10 3
v 1 11 3
v 1 12 3
v 2 3 3
v 2 9 3
v 2 10 3
v 2 11 3
v -3 3 2
v -3 6 2
v -2 2 2
v -2 3 2
v -2 6 2
v -2 11 2
v -2 12 2
v -1 1 2
v -1 2 2
v -1 3 2
v -1 11 2
v -1 12 2
v 1 1 2
v 1 2 2
v 1 3 2
v 1 11 2
v 1 12 2
v 2 2 2
v 2 3 2
v 2 6 2
v 2 11 2
v 2 12 2
v 3 3 2
v 3 6 2
v -3 2 1
v -3 3 1
v -2 0 1
v -2 2 1
v -2 3 1
v -1 0 1
v -1 1 1
v -1 2 1
v 1 0 1
v 1 1 1
v 1 2 1
v 2 0 1
v 2 2 1
v 2 3 1
v 3 2 1
v 3 3 1
v -3 1 -0
v -3 2 -0
v -2 1 -0
v -2 2 -0
v 2 1 -0
v 2 2 -0
v 3 1 -0
v 3 2 -0
v -2 11 1
v -2 12 1
v -1 11 1
v -1 12 1
v 1 11 1
v 1 12 1
v 2 11 1
v 2 12 1
v -2 0 -0
v -2 1 -0
v -2 9 -0
v -2 11 -0
v -1 0 -0
v -1 1 -0
v -1 11 -0
v -1 12 -0
v 1 0 -0
v 1 1 -0
v 1 11 -0
v 1 12 -0
v 2 0 -0
v 2 1 -0
v 2 9 -0
v 2 11 -0
v -2 7 -1
v -2 9 -1
v 2 7 -1
v 2 9 -1
v -3 4 -2
v -3 6 -2
v -2 2 -2
v -2 4 -2
v -2 6 -2
v -2 7 -2
v -1 1 -2
v -1 2 -2
v 1 1 -2
v 1 2 -2
v 2 2 -2
v 2 4 -2
v 2 6 -2
v 2 7 -2
v 3 4 -2
v 3 6 -2
v -3 1 -3
v -3 4 -3
v -2 2 -3
v -2 4 -3
v -1 1 -3
v -1 2 -3
v 1 1 -3
v 1 2 -3
v 2 2 -3
v 2 4 -3
v 3 1 -3
v 3 4 -3
v -2 0 1
v -1 0 1
v 1 0 1
v 2 0 1
v -2 0 -0
v -1 0 -0
v 1 0 -0
v 2 0 -0
v -1 1 2
v 1 1 2
v -1 1 1
v 1 1 1
v -3 1 -0
v -2 1 -0
v -1 1 -0
v 1 1 -0
v 2 1 -0
v 3 1 -0
v -2 1 -2
v -1 1 -2
v 1 1 -2
v 2 1 -2
v -3 1 -3
v -1 1 -3
v 1 1 -3
v 3 1 -3
v -1 2 3
v 1 2 3
v -2 2 2
v -1 2 2
v 1 2 2
v 2 2 2
v -3 2 1
v -2 2 1
v -1 2 1
v 1 2 1
v 2 2 1
v 3 2 1
v -3 2 -0
v -2 2 -0
v 2 2 -0
v 3 2 -0
v -2 3 3
v -1 3 3
v 1 3 3
v 2 3 3
v -3 3 2
v -2 3 2
v -1 3 2
v 1 3 2
v 2 3 2
v 3 3 2
v -3 3 1
v -2 3 1
v 2 3 1
v 3 3 1
v -1 9 5
v 1 9 5
v -1 9 3
v 1 9 3
v -2 2 -2
v -1 2 -2
v 1 2 -2
v 2 2 -2
v -2 2 -3
v -1 2 -3
v 1 2 -3
v 2 2 -3
v -3 4 -2
v -2 4 -2
v 2 4 -2
v 3 4 -2
v -3 4 -3
v -2 4 -3
v 2 4 -3
v 3 4 -3
v -3 6 2
v -2 6 2
v 2 6 2
v 3 6 2
v -3 6 -2
v -2 6 -2
v 2 6 -2
v 3 6 -2
v -2 7 -1
v 2 7 -1
v -2 7 -2
v 2 7 -2
v -2 9 -0
v 2 9 -0
v -2 9 -1
v 2 9 -1
v -1 10 5
v 1 10 5
v -1 10 3
v 1 10 3
v -2 11 3
v -1 11 3
v 1 11 3
v 2 11 3
v -2 11 2
v -1 11 2
v 1 11 2
v 2 11 2
v -2 11 1
v -1 11 1
v 1 11 1
v 2 11 1
v -2 11 -0
v -1 11 -0
v 1 11 -0
v 2 11 -0
v -1 12 3
v 1 12 3
v -2 12 2
v -1 12 2
v 1 12 2
v 2 12 2
v -2 12 1
v -1 12 1
v 1 12 1
v 2 12 1
v -1 12 -0
v 1 12 -0

# faces
f 4/3/1 2/3/1 1/3/1
f 6/3/1 4/3/1 3/3/1
f 7/3/1 2/3/1 4/3/1
f 7/3/1 6/3/1 5/3/1
f 7/3/1 4/3/1 6/3/1
f 8/3/1 2/3/1 7/3/1
f 9/3/1 7/3/1 5/3/1
f 10/3/1 7/3/1 9/3/1
f 13/1/1 12/1/1 11/1/1
f 15/1/1 13/1/1 11/1/1
f 16/1/1 13/1/1 15/1/1
f 18/1/1 15/1/1 14/1/1
f 19/1/1 15/1/1 18/1/1
f 20/1/1 18/1/1 17/1/1
f 22/1/1 21/1/1 20/1/1
f 23/1/1 21/1/1 22/1/1
f 24/1/1 20/1/1 17/1/1
f 24/1/1 22/1/1 20/1/1
f 25/1/1 22/1/1 24/1/1
f 26/1/1 22/1/1 25/1/1
f 27/1/1 22/1/1 26/1/1
f 28/2/1 25/2/1 24/2/1
f 29/1/1 26/1/1 25/1/1
f 29/2/1 25/2/1 28/2/1
f 30/1/1 29/1/1 28/1/1
f 31/1/1 29/1/1 30/1/1
f 32/1/1 26/1/1 29/1/1
f 32/1/1 29/1/1 31/1/1
f 33/1/1 26/1/1 32/1/1
f 34/1/1 32/1/1 31/1/1
f 35/1/1 32/1/1 34/1/1
f 39/1/1 37/1/1 36/1/1
f 40/1/1 37/1/1 39/1/1
f 41/1/1 39/1/1 38/1/1
f 42/1/1 39/1/1 41/1/1
f 45/1/1 44/1/1 43/1/1
f 46/1/1 44/1/1 45/1/1
f 51/1/1 48/1/1 47/1/1
f 52/1/1 48/1/1 51/1/1
f 53/1/1 50/1/1 49/1/1
f 54/1/1 50/1/1 53/1/1
f 57/1/1 56/1/1 55/1/1
f 58/1/1 56/1/1 57/1/1
f 61/3/1 60/3/1 59/3/1
f 62/3/1 60/3/1 61/3/1
f 65/3/1 64/3/1 63/3/1
f 66/3/1 64/3/1 65/3/1
f 67/3/2 68/3/2 69/3/2
f 69/3/2 68/3/2 70/3/2
f 71/1/2 72/1/2 73/1/2
f 73/1/2 72/1/2 74/1/2
f 75/3/2 76/3/2 77/3/2
f 77/3/2 76/3/2 78/3/2
f 79/1/2 80/1/2 82/1/2
f 82/1/2 80/1/2 83/1/2
f 81/1/2 82/1/2 84/1/2
f 84/1/2 82/1/2 85/1/2
f 86/1/2 87/1/2 88/1/2
f 88/1/2 87/1/2 89/1/2
f 90/1/2 91/1/2 94/1/2
f 94/1/2 91/1/2 95/1/2
f 92/1/2 93/1/2 96/1/2
f 96/1/2 93/1/2 97/1/2
f 98/1/2 99/1/2 100/1/2
f 98/1/2 100/1/2 102/1/2
f 102/1/2 100/1/2 103/1/2
f 101/1/2 102/1/2 105/1/2
f 105/1/2 102/1/2 106/1/2
f 104/1/2 105/1/2 107/1/2
f 107/1/2 108/1/2 109/1/2
f 109/1/2 108/1/2 110/1/2
f 104/1/2 107/1/2 111/1/2
f 107/1/2 109/1/2 111/1/2
f 111/1/2 109/1/2 112/1/2
f 112/1/2 109/1/2 113/1/2
f 113/1/2 109/1/2 114/1/2
f 111/2/2 112/2/2 115/2/2
f 112/1/2 113/1/2 116/1/2
f 115/2/2 112/2/2 116/2/2
f 115/1/2 116/1/2 117/1/2
f 117/1/2 116/1/2 118/1/2
f 116/1/2 113/1/2 119/1/2
f 118/1/2 116/1/2 119/1/2
f 119/1/2 113/1/2 120/1/2
f 118/1/2 119/1/2 121/1/2
f 121/1/2 119/1/2 122/1/2
f 123/3/2 124/3/2 126/3/2
f 125/3/2 126/3/2 128/3/2
f 126/3/2 124/3/2 129/3/2
f 127/3/2 128/3/2 129/3/2
f 128/3/2 126/3/2 129/3/2
f 129/3/2 124/3/2 130/3/2
f 127/3/2 129/3/2 131/3/2
f 131/3/2 129/3/2 132/3/2
f 135/1/3 134/1/3 133/1/3
f 136/1/3 134/1/3 135/1/3
f 142/1/3 138/1/3 137/1/3
f 143/2/3 139/2/3 138/2/3
f 143/1/3 138/1/3 142/1/3
f 144/1/3 140/1/3 139/1/3
f 144/2/3 139/2/3 143/2/3
f 145/1/3 140/1/3 144/1/3
f 147/1/3 143/1/3 142/1/3
f 147/1/3 142/1/3 141/1/3
f 148/1/3 143/1/3 147/1/3
f 149/1/3 143/1/3 148/1/3
f 150/1/3 146/1/3 145/1/3
f 150/1/3 145/1/3 144/1/3
f 151/1/3 146/1/3 150/1/3
f 152/1/3 146/1/3 151/1/3
f 153/1/3 149/1/3 148/1/3
f 154/2/3 150/2/3 149/2/3
f 154/1/3 149/1/3 153/1/3
f 155/1/3 151/1/3 150/1/3
f 155/2/3 150/2/3 154/2/3
f 156/1/3 151/1/3 155/1/3
f 160/3/3 158/3/3 157/3/3
f 161/3/3 158/3/3 160/3/3
f 165/1/3 160/1/3 159/1/3
f 166/1/3 160/1/3 165/1/3
f 167/1/3 163/1/3 162/1/3
f 168/1/3 163/1/3 167/1/3
f 169/1/3 165/1/3 164/1/3
f 170/1/3 165/1/3 169/1/3
f 174/1/3 171/1/3 170/1/3
f 175/1/3 171/1/3 174/1/3
f 177/1/3 173/1/3 172/1/3
f 178/1/3 173/1/3 177/1/3
f 179/3/3 176/3/3 175/3/3
f 180/3/3 176/3/3 179/3/3
f 184/3/3 182/3/3 181/3/3
f 185/3/3 182/3/3 184/3/3
f 186/1/3 184/1/3 183/1/3
f 187/1/3 184/1/3 186/1/3
f 188/1/3 184/1/3 187/1/3
f 192/1/3 190/1/3 189/1/3
f 192/1/3 191/1/3 190/1/3
f 193/1/3 191/1/3 192/1/3
f 195/3/3 194/3/3 193/3/3
f 196/3/3 194/3/3 195/3/3
f 199/3/3 198/3/3 197/3/3
f 200/3/3 198/3/3 199/3/3
f 203/3/3 202/3/3 201/3/3
f 204/3/3 202/3/3 203/3/3
f 205/1/4 206/1/4 207/1/4
f 207/1/4 206/1/4 208/1/4
f 209/1/4 210/1/4 211/1/4
f 211/1/4 210/1/4 212/1/4
f 213/1/4 214/1/4 217/1/4
f 217/1/4 214/1/4 218/1/4
f 215/1/4 216/1/4 219/1/4
f 219/1/4 220/1/4 223/1/4
f 215/1/4 219/1/4 223/1/4
f 223/1/4 220/1/4 224/1/4
f 221/1/4 222/1/4 225/1/4
f 225/1/4 222/1/4 226/1/4
f 215/1/4 223/1/4 227/1/4
f 227/1/4 223/1/4 228/1/4
f 229/1/4 230/1/4 231/1/4
f 231/1/4 230/1/4 232/1/4
f 233/3/4 234/3/4 236/3/4
f 236/3/4 234/3/4 237/3/4
f 235/1/4 236/1/4 240/1/4
f 237/1/4 238/1/4 240/1/4
f 236/1/4 237/1/4 240/1/4
f 239/1/4 240/1/4 241/1/4
f 240/1/4 238/1/4 242/1/4
f 241/1/4 240/1/4 242/1/4
f 242/1/4 238/1/4 243/1/4
f 243/1/4 238/1/4 244/1/4
f 244/1/4 238/1/4 245/1/4
f 245/1/4 238/1/4 246/1/4
f 244/3/4 245/3/4 247/3/4
f 247/3/4 245/3/4 248/3/4
f 249/3/4 250/3/4 251/3/4
f 251/3/4 250/3/4 252/3/4
f 249/3/4 251/3/4 253/3/4
f 253/3/4 251/3/4 254/3/4
f 255/3/4 256/3/4 257/3/4
f 255/3/4 257/3/4 259/3/4
f 257/3/4 258/3/4 259/3/4
f 259/3/4 258/3/4 260/3/4
f 265/1/5 262/1/5 261/1/5
f 266/1/5 262/1/5 265/1/5
f 267/1/5 264/1/5 263/1/5
f 268/1/5 264/1/5 267/1/5
f 271/1/5 270/1/5 269/1/5
f 272/1/5 270/1/5 271/1/5
f 275/1/5 272/1/5 271/1/5
f 276/1/5 272/1/5 275/1/5
f 279/3/5 274/3/5 273/3/5
f 279/1/5 276/1/5 275/1/5
f 279/1/5 277/1/5 276/1/5
f 279/1/5 275/1/5 274/1/5
f 280/1/5 277/1/5 279/1/5
f 281/1/5 277/1/5 280/1/5
f 282/3/5 278/3/5 277/3/5
f 282/1/5 277/1/5 281/1/5
f 283/3/5 279/3/5 273/3/5
f 283/3/5 280/3/5 279/3/5
f 284/3/5 280/3/5 283/3/5
f 285/3/5 282/3/5 281/3/5
f 286/3/5 278/3/5 282/3/5
f 286/3/5 282/3/5 285/3/5
f 290/1/5 288/1/5 287/1/5
f 291/1/5 288/1/5 290/1/5
f 294/1/5 290/1/5 289/1/5
f 295/1/5 290/1/5 294/1/5
f 296/1/5 292/1/5 291/1/5
f 297/1/5 292/1/5 296/1/5
f 299/3/5 294/3/5 293/3/5
f 300/3/5 294/3/5 299/3/5
f 301/3/5 298/3/5 297/3/5
f 302/3/5 298/3/5 301/3/5
f 308/1/5 304/1/5 303/1/5
f 309/1/5 304/1/5 308/1/5
f 310/1/5 306/1/5 305/1/5
f 311/1/5 306/1/5 310/1/5
f 313/3/5 308/3/5 307/3/5
f 314/3/5 308/3/5 313/3/5
f 315/3/5 312/3/5 311/3/5
f 316/3/5 312/3/5 315/3/5
f 319/1/5 318/1/5 317/1/5
f 320/1/5 318/1/5 319/1/5
f 321/3/6 322/3/6 325/3/6
f 325/3/6 322/3/6 326/3/6
f 323/3/6 324/3/6 327/3/6
f 327/3/6 324/3/6 328/3/6
f 329/3/6 330/3/6 333/3/6
f 333/3/6 330/3/6 334/3/6
f 331/3/6 332/3/6 335/3/6
f 335/3/6 332/3/6 336/3/6
f 337/3/6 338/3/6 341/3/6
f 341/3/6 338/3/6 342/3/6
f 339/3/6 340/3/6 343/3/6
f 343/3/6 340/3/6 344/3/6
f 345/1/6 346/1/6 347/1/6
f 347/1/6 346/1/6 348/1/6
f 349/1/6 350/1/6 351/1/6
f 351/1/6 350/1/6 352/1/6
f 353/1/6 354/1/6 355/1/6
f 355/1/6 354/1/6 356/1/6
f 357/1/6 358/1/6 361/1/6
f 361/1/6 358/1/6 362/1/6
f 359/1/6 360/1/6 363/1/6
f 363/1/6 360/1/6 364/1/6
f 365/1/6 366/1/6 369/1/6
f 369/1/6 366/1/6 370/1/6
f 367/1/6 368/1/6 371/1/6
f 371/1/6 368/1/6 372/1/6
f 373/1/6 374/1/6 376/1/6
f 376/1/6 374/1/6 377/1/6
f 375/1/6 376/1/6 379/1/6
f 377/1/6 378/1/6 379/1/6
f 376/1/6 377/1/6 379/1/6
f 379/1/6 378/1/6 380/1/6
f 380/1/6 378/1/6 381/1/6
f 381/1/6 378/1/6 382/1/6
f 380/1/6 381/1/6 383/1/6
f 383/1/6 381/1/6 384/1/6
